<?xml version="1.0" standalone="no"?><svg xmlns="http://www.w3.org/2000/svg" viewBox="0 0 1440 320"><path fill="#5000ca" fill-opacity="1" d="M0,64L16,58.7C32,53,64,43,96,48C128,53,160,75,192,90.7C224,107,256,117,288,133.3C320,149,352,171,384,176C416,181,448,171,480,138.7C512,107,544,53,576,58.7C608,64,640,128,672,149.3C704,171,736,149,768,144C800,139,832,149,864,154.7C896,160,928,160,960,138.7C992,117,1024,75,1056,53.3C1088,32,1120,32,1152,32C1184,32,1216,32,1248,37.3C1280,43,1312,53,1344,58.7C1376,64,1408,64,1424,64L1440,64L1440,320L1424,320C1408,320,1376,320,1344,320C1312,320,1280,320,1248,320C1216,320,1184,320,1152,320C1120,320,1088,320,1056,320C1024,320,992,320,960,320C928,320,896,320,864,320C832,320,800,320,768,320C736,320,704,320,672,320C640,320,608,320,576,320C544,320,512,320,480,320C448,320,416,320,384,320C352,320,320,320,288,320C256,320,224,320,192,320C160,320,128,320,96,320C64,320,32,320,16,320L0,320Z"></path></svg>